<svg width="387" height="149" viewBox="0 0 387 149" fill="none" xmlns="http://www.w3.org/2000/svg">
<path d="M377.631 89.3259L364.693 147.531L364.607 147.918L364.211 147.902L0.973633 133.516L0.517578 133.499V94.9109L0.984375 94.903L377.16 88.7487L377.762 88.739L377.631 89.3259Z" stroke="#717171" stroke-width="0.94869"/>
<path d="M76.9118 0.0356389H59.2703C58.1298 0.0356389 57.7734 0.427671 57.7734 1.53249V4.74003C57.7734 5.88049 58.1298 6.27252 59.2703 6.27252H64.5805V23.8427C64.5805 24.9475 64.9369 25.3396 66.0774 25.3396H70.1046C71.2451 25.3396 71.6371 24.9475 71.6371 23.8427V6.27252H76.9118C78.0522 6.27252 78.4442 5.88049 78.4442 4.74003V1.53249C78.4442 0.427671 78.0522 0.0356389 76.9118 0.0356389Z" fill="black"/>
<path d="M102.449 0H98.3858C97.281 0 96.889 0.392032 96.889 1.53249V9.40878H89.975V1.53249C89.975 0.392032 89.6186 0 88.4781 0H84.4509C83.3104 0 82.9184 0.392032 82.9184 1.53249V23.8427C82.9184 24.9475 83.3104 25.3396 84.4509 25.3396H88.4781C89.6186 25.3396 89.975 24.9475 89.975 23.8427V15.6457H96.889V23.8427C96.889 24.9475 97.281 25.3396 98.3858 25.3396H102.449C103.554 25.3396 103.946 24.9475 103.946 23.8427V1.53249C103.946 0.392032 103.554 0 102.449 0Z" fill="black"/>
<path d="M126.307 0.0356389H111.374C110.233 0.0356389 109.841 0.427671 109.841 1.53249V23.8427C109.841 24.9475 110.233 25.3396 111.374 25.3396H126.628C127.732 25.3396 128.124 24.9475 128.124 23.8427V20.5995C128.124 19.4591 127.732 19.1027 126.628 19.1027H116.898V15.6813H124.418C125.558 15.6813 125.95 15.2893 125.95 14.1488V10.9413C125.95 9.83645 125.558 9.44442 124.418 9.44442H116.898V6.27252H126.307C127.447 6.27252 127.839 5.88049 127.839 4.74003V1.53249C127.839 0.427671 127.447 0.0356389 126.307 0.0356389Z" fill="black"/>
<path fill-rule="evenodd" clip-rule="evenodd" d="M51.7057 33.981H70.9783C81.8715 33.981 88.994 40.3354 88.994 51.4381C88.994 62.471 81.9414 68.6857 71.118 68.6857H62.5291V80.6264C62.5291 82.791 61.8308 83.5592 59.5963 83.5592H51.7057C49.4712 83.5592 48.7031 82.791 48.7031 80.6264V36.9138C48.7031 34.7492 49.4712 33.981 51.7057 33.981ZM62.5291 56.4658H69.4421C72.7241 56.4658 74.6792 54.4407 74.6792 51.3683C74.6792 48.2959 72.7241 46.201 69.4421 46.201H62.5291V56.4658Z" fill="#407BFF"/>
<path d="M94.1935 33.981H128.759C130.993 33.981 131.761 34.7492 131.761 36.9138V43.1984C131.761 45.4329 130.993 46.201 128.759 46.201H118.424V80.6264C118.424 82.791 117.656 83.5592 115.421 83.5592H107.531C105.296 83.5592 104.598 82.791 104.598 80.6264V46.201H94.1935C91.959 46.201 91.2607 45.4329 91.2607 43.1984V36.9138C91.2607 34.7492 91.959 33.981 94.1935 33.981Z" fill="#407BFF"/>
<path d="M166.294 33.9112H174.254C176.419 33.9112 177.187 34.6793 177.187 36.9138V80.6264C177.187 82.791 176.419 83.5592 174.254 83.5592H166.294C164.129 83.5592 163.361 82.791 163.361 80.6264V67.5692H170.395L156.691 55.8733L142.738 67.5692H149.814V80.6264C149.814 82.791 149.116 83.5592 146.882 83.5592H138.991C136.757 83.5592 135.988 82.791 135.988 80.6264V36.9138C135.988 34.6793 136.757 33.9112 138.991 33.9112H146.882C149.116 33.9112 149.814 34.6793 149.814 36.9138V52.3459H163.361V36.9138C163.361 34.6793 164.129 33.9112 166.294 33.9112Z" fill="#407BFF"/>
<path fill-rule="evenodd" clip-rule="evenodd" d="M187.203 33.981H207.104C217.648 33.981 224.491 39.9863 224.491 50.8097C224.491 57.6528 221.698 62.5408 216.949 65.1943C217.648 66.1021 218.276 67.0797 218.835 68.1969L225.119 80.1376C226.097 82.0229 225.608 83.5592 223.304 83.5592H215.762C212.061 83.5592 210.455 82.6514 209.338 80.2074L204.869 70.6409C203.682 68.2667 202.495 67.0797 199.632 67.0797H198.026V80.6264C198.026 82.791 197.328 83.5592 195.093 83.5592H187.203C184.968 83.5592 184.2 82.791 184.2 80.6264V36.9138C184.2 34.7492 184.968 33.981 187.203 33.981ZM205.567 55.4183C208.5 55.4183 210.176 53.6028 210.176 50.7398C210.176 47.9467 208.57 46.201 205.567 46.201H198.026V55.4183H205.567Z" fill="#407BFF"/>
<path d="M240.84 33.981C243.074 33.981 243.843 34.7492 243.843 36.9138V65.9624C243.843 70.0823 246.217 72.3866 251.035 72.3866C255.853 72.3866 258.297 70.0823 258.297 65.9624V36.9138C258.297 34.7492 258.995 33.981 261.23 33.981H269.12C271.355 33.981 272.123 34.7492 272.123 36.9138V65.334C272.123 77.0651 264.861 84.6066 251.035 84.6066C237.279 84.6066 230.017 77.0651 230.017 65.334V36.9138C230.017 34.7492 230.715 33.981 232.949 33.981H240.84Z" fill="#407BFF"/>
<path d="M296.621 64.6812C288.464 63.5664 277.177 62.0239 277.177 48.5752C277.177 39.3578 284.579 32.9336 297.916 32.9336C308.251 32.9336 314.117 36.0061 317.398 42.7096C318.376 44.7346 317.817 45.782 315.723 46.62L308.74 49.6226C306.854 50.4605 306.086 50.1812 304.969 48.1562C303.642 45.5027 301.129 44.5251 297.916 44.5251C293.168 44.5251 291.283 45.7122 291.283 48.1562C291.283 51.1588 295.403 51.7873 300.43 52.4157C308.53 53.533 319.005 55.4882 319.005 68.6857C319.005 78.9505 309.717 84.6066 297.358 84.6066C286.953 84.6066 279.691 81.0453 277.038 73.7832C276.27 71.6883 276.898 70.7107 278.923 69.9426L285.487 67.5685C287.582 66.8702 288.559 67.0796 289.607 69.1047C290.864 71.5487 293.587 72.8056 297.497 72.8056C302.176 72.8056 304.969 71.828 304.969 68.8254C304.969 66.1021 301.408 65.334 296.799 64.7055L296.621 64.6812Z" fill="#407BFF"/>
<path d="M324.204 33.981H358.769C361.003 33.981 361.772 34.7492 361.772 36.9138V43.1984C361.772 45.4329 361.003 46.201 358.769 46.201H348.434V80.6264C348.434 82.791 347.666 83.5592 345.432 83.5592H337.541C335.307 83.5592 334.608 82.791 334.608 80.6264V46.201H324.204C321.969 46.201 321.271 45.4329 321.271 43.1984V36.9138C321.271 34.7492 321.969 33.981 324.204 33.981Z" fill="#407BFF"/>
<path d="M13.826 36.9183V65.9668C13.826 70.0867 16.2002 72.391 21.0183 72.391C25.8365 72.391 28.2804 70.0867 28.2804 65.9668V16.3911C28.2804 14.2264 28.9787 13.4583 31.2132 13.4583H39.1038C41.3383 13.4583 42.1064 14.2264 42.1064 16.3911V65.3384C42.1064 77.0695 34.8443 84.611 21.0183 84.611C7.26214 84.611 0 77.0695 0 65.3384V36.9183C0 34.7536 0.698283 33.9855 2.93279 33.9855H10.8234C13.0579 33.9855 13.826 34.7536 13.826 36.9183Z" fill="#D43232"/>
<path d="M34.436 1.17761C34.8151 0.82792 35.3992 0.827921 35.7783 1.17762L49.0719 13.4387C49.7345 14.0499 49.3021 15.1564 48.4007 15.1564H21.8136C20.9122 15.1564 20.4798 14.0499 21.1424 13.4387L34.436 1.17761Z" fill="#D43232"/>
<path d="M0 94.1167L378.096 87.993L361.766 137.086L0 133.004V94.1167Z" fill="#407BFF"/>
<path d="M36.406 109.439H48.4134V114.907H36.406V109.439ZM36.9233 119.636H50.4454V125.288H29.6819V99.4264H49.9651V105.079H36.9233V119.636ZM62.6329 125.288V99.4264H74.8619C77.719 99.4264 80.2313 99.9559 82.3988 101.015C84.5663 102.074 86.2535 103.564 87.4604 105.485C88.6919 107.407 89.3076 109.697 89.3076 112.357C89.3076 114.993 88.6919 117.283 87.4604 119.229C86.2535 121.15 84.5663 122.641 82.3988 123.7C80.2313 124.759 77.719 125.288 74.8619 125.288H62.6329ZM69.9481 119.451H74.5663C76.0441 119.451 77.3249 119.18 78.4087 118.638C79.517 118.072 80.3791 117.259 80.9949 116.2C81.6106 115.116 81.9185 113.835 81.9185 112.357C81.9185 110.855 81.6106 109.574 80.9949 108.515C80.3791 107.456 79.517 106.655 78.4087 106.114C77.3249 105.547 76.0441 105.264 74.5663 105.264H69.9481V119.451ZM113.218 125.806C109.4 125.806 106.42 124.759 104.277 122.665C102.134 120.572 101.063 117.604 101.063 113.761V99.4264H108.378V113.54C108.378 115.756 108.809 117.345 109.671 118.306C110.558 119.266 111.765 119.747 113.292 119.747C114.819 119.747 116.013 119.266 116.875 118.306C117.738 117.345 118.169 115.756 118.169 113.54V99.4264H125.373V113.761C125.373 117.604 124.302 120.572 122.159 122.665C120.016 124.759 117.036 125.806 113.218 125.806ZM146.4 125.288L135.353 99.4264H143.26L152.57 121.815H147.915L157.447 99.4264H164.688L153.604 125.288H146.4ZM181.054 109.439H193.062V114.907H181.054V109.439ZM181.571 119.636H195.094V125.288H174.33V99.4264H194.613V105.079H181.571V119.636ZM207.281 125.288V99.4264H219.104C221.468 99.4264 223.5 99.8082 225.2 100.572C226.924 101.335 228.254 102.444 229.19 103.897C230.126 105.325 230.594 107.025 230.594 108.995C230.594 110.941 230.126 112.628 229.19 114.057C228.254 115.461 226.924 116.545 225.2 117.308C223.5 118.047 221.468 118.416 219.104 118.416H211.345L214.596 115.35V125.288H207.281ZM223.278 125.288L216.85 115.867H224.645L231.111 125.288H223.278ZM214.596 116.126L211.345 112.764H218.66C220.187 112.764 221.32 112.431 222.059 111.766C222.823 111.101 223.205 110.178 223.205 108.995C223.205 107.788 222.823 106.852 222.059 106.187C221.32 105.522 220.187 105.19 218.66 105.19H211.345L214.596 101.828V116.126ZM251.846 125.806C249.728 125.806 247.684 125.547 245.713 125.03C243.767 124.488 242.179 123.798 240.947 122.961L243.349 117.567C244.506 118.306 245.836 118.921 247.339 119.414C248.866 119.882 250.381 120.116 251.883 120.116C252.893 120.116 253.706 120.03 254.322 119.857C254.937 119.66 255.381 119.414 255.652 119.118C255.947 118.798 256.095 118.429 256.095 118.01C256.095 117.419 255.824 116.951 255.282 116.606C254.74 116.261 254.038 115.978 253.176 115.756C252.314 115.535 251.354 115.313 250.294 115.091C249.26 114.87 248.213 114.586 247.154 114.242C246.12 113.897 245.171 113.453 244.309 112.912C243.447 112.345 242.745 111.618 242.203 110.732C241.661 109.82 241.391 108.675 241.391 107.296C241.391 105.744 241.809 104.34 242.647 103.084C243.509 101.828 244.79 100.818 246.489 100.054C248.189 99.2909 250.307 98.9091 252.844 98.9091C254.543 98.9091 256.206 99.1062 257.831 99.5003C259.482 99.8697 260.947 100.424 262.228 101.163L259.974 106.594C258.743 105.929 257.523 105.436 256.317 105.116C255.11 104.771 253.94 104.599 252.807 104.599C251.797 104.599 250.984 104.71 250.368 104.931C249.753 105.128 249.309 105.399 249.038 105.744C248.767 106.089 248.632 106.483 248.632 106.926C248.632 107.493 248.89 107.949 249.408 108.293C249.95 108.614 250.652 108.884 251.514 109.106C252.4 109.303 253.361 109.513 254.395 109.734C255.455 109.956 256.501 110.239 257.536 110.584C258.595 110.904 259.555 111.348 260.418 111.914C261.28 112.456 261.969 113.182 262.487 114.094C263.028 114.981 263.299 116.101 263.299 117.456C263.299 118.958 262.868 120.35 262.006 121.631C261.169 122.887 259.9 123.897 258.201 124.66C256.526 125.424 254.408 125.806 251.846 125.806ZM274.806 125.288V99.4264H282.122V125.288H274.806ZM300.959 125.288V105.227H293.016V99.4264H316.181V105.227H308.274V125.288H300.959ZM332.96 125.288V114.352L334.66 118.749L323.096 99.4264H330.817L339.167 113.429H334.697L343.083 99.4264H350.177L338.65 118.749L340.275 114.352V125.288H332.96Z" fill="white"/>
<path d="M372.344 83.9913L383.844 83.8314L379.429 97.156" stroke="#407BFF" stroke-width="4.08246"/>
</svg>
