<svg width="925" height="744" viewBox="0 0 925 744" fill="none" xmlns="http://www.w3.org/2000/svg">
<path d="M366.557 557.226C406.547 597.322 458.418 623.428 514.446 631.657C570.474 639.886 627.662 629.798 677.492 602.895C727.323 575.992 767.131 533.713 790.987 482.354C814.844 430.996 821.474 373.305 809.89 317.874L700.66 340.701C707.326 372.597 703.511 405.792 689.784 435.344C676.057 464.895 653.151 489.223 624.479 504.703C595.806 520.183 562.901 525.988 530.662 521.253C498.424 516.518 468.577 501.496 445.567 478.425L366.557 557.226Z" fill="#6621EC"/>
<path d="M806.975 305.443C791.947 247.699 757.716 196.787 709.911 161.08C662.107 125.373 603.574 106.995 543.939 108.97C484.304 110.945 427.115 133.154 381.778 171.946C336.44 210.738 305.653 263.803 294.477 322.415L404.092 343.314C410.522 309.589 428.237 279.055 454.325 256.735C480.412 234.414 513.318 221.635 547.632 220.498C581.946 219.362 615.626 229.936 643.133 250.482C670.639 271.028 690.336 300.323 698.983 333.549L806.975 305.443Z" fill="#FE4000"/>
<path d="M292.772 332.401C286.66 372.881 290.09 414.23 302.787 453.15L408.874 418.539C401.567 396.145 399.594 372.353 403.111 349.06L292.772 332.401Z" fill="#C8045C"/>
<path d="M305.575 461.245C317.67 494.592 336.391 525.146 360.609 551.065L442.144 474.88C428.209 459.966 417.437 442.385 410.478 423.197L305.575 461.245Z" fill="#3F83F2"/>
<path d="M251.449 146.02C196.612 146.681 143.454 165.037 99.8929 198.354C56.3317 231.672 24.6973 278.168 9.70071 330.92C-5.2959 383.671 -2.85246 439.856 16.6671 491.106C36.1867 542.357 71.7383 585.931 118.027 615.341L175.98 524.127C149.346 507.205 128.889 482.132 117.658 452.642C106.426 423.153 105.02 390.824 113.649 360.471C122.278 330.118 140.481 303.364 165.546 284.193C190.611 265.022 221.198 254.46 252.751 254.08L251.449 146.02Z" fill="#6621EC"/>
<path d="M128.621 621.716C178.842 650.299 237.294 660.942 294.366 651.894C351.439 642.846 403.733 614.647 442.651 571.933C481.569 529.219 504.793 474.533 508.506 416.868C512.218 359.202 496.196 301.99 463.076 254.638L374.521 316.579C393.579 343.825 402.797 376.745 400.661 409.925C398.526 443.106 385.162 474.572 362.769 499.15C340.375 523.728 310.285 539.954 277.446 545.16C244.606 550.366 210.973 544.242 182.076 527.795L128.621 621.716Z" fill="#FE4000"/>
<path d="M457.299 246.709C433.34 215.12 402.332 189.566 366.748 172.083L319.094 269.076C339.569 279.136 357.411 293.84 371.197 312.016L457.299 246.709Z" fill="#C8045C"/>
<path d="M359.247 168.549C327.937 154.413 294.089 146.761 259.743 146.056L257.523 254.1C277.286 254.506 296.762 258.909 314.778 267.043L359.247 168.549Z" fill="#3F83F2"/>
</svg>
